<svg xmlns="http://www.w3.org/2000/svg" style="display:none">
  <symbol fill="none" stroke="currentColor" stroke-width="1.9" stroke-linecap="round" stroke-linejoin="round" id="flask" viewBox="0 0 24 24">
    <path d="M10 2h4"/><path d="M11 2v6l-6.5 10.5A2 2 0 0 0 6.2 22h11.6a2 2 0 0 0 1.7-3.5L13 8V2"/><path d="M8 16h8"/><path d="M9 19h6"/>
  </symbol>
  <symbol fill="none" stroke="currentColor" stroke-width="1.9" stroke-linecap="round" stroke-linejoin="round" id="beaker" viewBox="0 0 24 24">
    <path d="M6 2h12"/><path d="M8 2v17a3 3 0 0 0 3 3h2a3 3 0 0 0 3-3V2"/><path d="M8 14h8"/><path d="M10 10h1"/><path d="M14 7h1"/>
  </symbol>
  <symbol fill="none" stroke="currentColor" stroke-width="1.9" stroke-linecap="round" stroke-linejoin="round" id="atom" viewBox="0 0 24 24">
    <circle cx="12" cy="12" r="1.8"/><path d="M20.2 12c0 2.2-3.7 4-8.2 4s-8.2-1.8-8.2-4 3.7-4 8.2-4 8.2 1.8 8.2 4Z"/><path d="M16.1 19.1c-1.9 1.1-5.3-1.5-7.6-5.4S5.8 5.9 7.7 4.8s5.3 1.5 7.6 5.4 2.7 7.8.8 8.9Z"/><path d="M7.9 19.1c-1.9-1.1-1.5-5 .8-8.9s5.7-6.5 7.6-5.4 1.5 5-.8 8.9-5.7 6.5-7.6 5.4Z"/>
  </symbol>
  <symbol fill="none" stroke="currentColor" stroke-width="1.9" stroke-linecap="round" stroke-linejoin="round" id="graduation" viewBox="0 0 24 24">
    <path d="M3 8 12 3l9 5-9 5-9-5Z"/><path d="M7 10.5v4.2c0 1.8 2.2 3.3 5 3.3s5-1.5 5-3.3v-4.2"/><path d="M21 8v7"/>
  </symbol>
  <symbol fill="none" stroke="currentColor" stroke-width="1.9" stroke-linecap="round" stroke-linejoin="round" id="clipboard" viewBox="0 0 24 24">
    <path d="M9 4h6a2 2 0 0 1 2 2v1H7V6a2 2 0 0 1 2-2Z"/><path d="M17 6h2a2 2 0 0 1 2 2v11a2 2 0 0 1-2 2H5a2 2 0 0 1-2-2V8a2 2 0 0 1 2-2h2"/><path d="m8 14 2.2 2.2L16 10.5"/>
  </symbol>
  <symbol fill="none" stroke="currentColor" stroke-width="1.9" stroke-linecap="round" stroke-linejoin="round" id="chart" viewBox="0 0 24 24">
    <path d="M4 19V5"/><path d="M4 19h16"/><path d="M8 16v-5"/><path d="M12 16V8"/><path d="M16 16v-8"/><path d="M20 16v-3"/>
  </symbol>
  <symbol fill="none" stroke="currentColor" stroke-width="1.9" stroke-linecap="round" stroke-linejoin="round" id="teacher" viewBox="0 0 24 24">
    <circle cx="9" cy="7" r="3"/><path d="M3.5 20c.7-3.2 2.8-5 5.5-5s4.8 1.8 5.5 5"/><path d="M14 5h7v10h-5"/><path d="M17 9h2"/><path d="M17 12h2"/>
  </symbol>
  <symbol fill="none" stroke="currentColor" stroke-width="1.9" stroke-linecap="round" stroke-linejoin="round" id="clock" viewBox="0 0 24 24">
    <circle cx="12" cy="12" r="9"/><path d="M12 7v5l3 2"/>
  </symbol>
  <symbol fill="none" stroke="currentColor" stroke-width="1.9" stroke-linecap="round" stroke-linejoin="round" id="book" viewBox="0 0 24 24">
    <path d="M4 5.5A2.5 2.5 0 0 1 6.5 3H20v17H6.5A2.5 2.5 0 0 0 4 22V5.5Z"/><path d="M4 5.5V22"/><path d="M8 7h8"/><path d="M8 11h6"/>
  </symbol>
  <symbol fill="none" stroke="currentColor" stroke-width="1.9" stroke-linecap="round" stroke-linejoin="round" id="star" viewBox="0 0 24 24">
    <path d="m12 3 2.8 5.7 6.2.9-4.5 4.4 1.1 6.2L12 17.3l-5.6 2.9 1.1-6.2L3 9.6l6.2-.9L12 3Z"/>
  </symbol>
  <symbol fill="none" stroke="currentColor" stroke-width="1.9" stroke-linecap="round" stroke-linejoin="round" id="microscope" viewBox="0 0 24 24">
    <path d="M6 18h12"/><path d="M9 22h6"/><path d="M12 18v4"/><path d="M9 3h4l3 6-4 2-3-6Z"/><path d="M14 11c1.4 2.8-.3 6-3.5 6"/><path d="M5 17h5"/>
  </symbol>
  <symbol fill="none" stroke="currentColor" stroke-width="1.9" stroke-linecap="round" stroke-linejoin="round" id="molecule" viewBox="0 0 24 24">
    <circle cx="6" cy="12" r="3"/><circle cx="17" cy="6" r="3"/><circle cx="18" cy="18" r="3"/><path d="M8.7 10.6 14.3 7.4"/><path d="M8.8 13.3 15.2 16.7"/>
  </symbol>
  <symbol fill="none" stroke="currentColor" stroke-width="1.9" stroke-linecap="round" stroke-linejoin="round" id="calculator" viewBox="0 0 24 24">
    <rect x="5" y="3" width="14" height="18" rx="2"/><path d="M8 7h8"/><path d="M8 11h.1"/><path d="M12 11h.1"/><path d="M16 11h.1"/><path d="M8 15h.1"/><path d="M12 15h.1"/><path d="M16 15h.1"/>
  </symbol>
  <symbol fill="none" stroke="currentColor" stroke-width="1.9" stroke-linecap="round" stroke-linejoin="round" id="thermometer" viewBox="0 0 24 24">
    <path d="M14 14.8V5a3 3 0 0 0-6 0v9.8a5 5 0 1 0 6 0Z"/><path d="M11 6v9"/>
  </symbol>
  <symbol fill="none" stroke="currentColor" stroke-width="1.9" stroke-linecap="round" stroke-linejoin="round" id="user" viewBox="0 0 24 24">
    <circle cx="12" cy="8" r="4"/><path d="M4 21c1.2-4 4-6 8-6s6.8 2 8 6"/>
  </symbol>
  <symbol fill="none" stroke="currentColor" stroke-width="1.9" stroke-linecap="round" stroke-linejoin="round" id="users" viewBox="0 0 24 24">
    <path d="M16 21c-.8-3-2.7-4.5-5.5-4.5S5.8 18 5 21"/><circle cx="10.5" cy="9" r="3.5"/><path d="M18 19c-.4-1.7-1.4-3-3-3.8"/><path d="M15.5 6.2a3 3 0 0 1 0 5.6"/>
  </symbol>
  <symbol fill="none" stroke="currentColor" stroke-width="1.9" stroke-linecap="round" stroke-linejoin="round" id="timer" viewBox="0 0 24 24">
    <path d="M9 2h6"/><path d="M12 6a8 8 0 1 0 8 8"/><path d="M12 10v4l3 2"/><path d="m18 5 2 2"/>
  </symbol>
  <symbol fill="none" stroke="currentColor" stroke-width="1.9" stroke-linecap="round" stroke-linejoin="round" id="play" viewBox="0 0 24 24">
    <circle cx="12" cy="12" r="9"/><path d="m10 8 6 4-6 4V8Z"/>
  </symbol>
  <symbol fill="none" stroke="currentColor" stroke-width="1.9" stroke-linecap="round" stroke-linejoin="round" id="check" viewBox="0 0 24 24">
    <path d="m5 12 4 4L19 6"/>
  </symbol>
  <symbol fill="none" stroke="currentColor" stroke-width="1.9" stroke-linecap="round" stroke-linejoin="round" id="dashboard" viewBox="0 0 24 24">
    <rect x="3" y="3" width="8" height="8" rx="2"/><rect x="13" y="3" width="8" height="5" rx="2"/><rect x="13" y="10" width="8" height="11" rx="2"/><rect x="3" y="13" width="8" height="8" rx="2"/>
  </symbol>
  <symbol fill="none" stroke="currentColor" stroke-width="1.9" stroke-linecap="round" stroke-linejoin="round" id="calendar" viewBox="0 0 24 24">
    <rect x="3" y="5" width="18" height="16" rx="2"/><path d="M8 3v4"/><path d="M16 3v4"/><path d="M3 10h18"/>
  </symbol>
  <symbol fill="none" stroke="currentColor" stroke-width="1.9" stroke-linecap="round" stroke-linejoin="round" id="bell" viewBox="0 0 24 24">
    <path d="M18 9a6 6 0 0 0-12 0c0 7-3 7-3 9h18c0-2-3-2-3-9Z"/><path d="M10 21h4"/>
  </symbol>
  <symbol fill="none" stroke="currentColor" stroke-width="1.9" stroke-linecap="round" stroke-linejoin="round" id="settings" viewBox="0 0 24 24">
    <circle cx="12" cy="12" r="3"/><path d="M19.4 15a1.8 1.8 0 0 0 .4 2l.1.1-2.2 3.8-.2-.1a1.8 1.8 0 0 0-2 .4 1.8 1.8 0 0 0-.6 1.8H9.1a1.8 1.8 0 0 0-.6-1.8 1.8 1.8 0 0 0-2-.4l-.2.1-2.2-3.8.1-.1a1.8 1.8 0 0 0 .4-2 1.8 1.8 0 0 0-1.6-1.2V9.2A1.8 1.8 0 0 0 4.6 8a1.8 1.8 0 0 0-.4-2l-.1-.1 2.2-3.8.2.1a1.8 1.8 0 0 0 2-.4A1.8 1.8 0 0 0 9.1 0h5.8a1.8 1.8 0 0 0 .6 1.8 1.8 1.8 0 0 0 2 .4l.2-.1 2.2 3.8-.1.1a1.8 1.8 0 0 0-.4 2 1.8 1.8 0 0 0 1.6 1.2v4.6A1.8 1.8 0 0 0 19.4 15Z" transform="scale(.82) translate(2.6 1)"/>
  </symbol>
  <symbol fill="none" stroke="currentColor" stroke-width="1.9" stroke-linecap="round" stroke-linejoin="round" id="target" viewBox="0 0 24 24">
    <circle cx="12" cy="12" r="9"/><circle cx="12" cy="12" r="5"/><circle cx="12" cy="12" r="1.5"/>
  </symbol>
  <symbol fill="none" stroke="currentColor" stroke-width="1.9" stroke-linecap="round" stroke-linejoin="round" id="report" viewBox="0 0 24 24">
    <path d="M6 3h9l3 3v15H6V3Z"/><path d="M15 3v4h4"/><path d="M9 13h6"/><path d="M9 17h4"/><path d="M9 9h2"/>
  </symbol>
  <symbol fill="none" stroke="currentColor" stroke-width="1.9" stroke-linecap="round" stroke-linejoin="round" id="search" viewBox="0 0 24 24">
    <circle cx="11" cy="11" r="7"/><path d="m20 20-4-4"/>
  </symbol>
  <symbol fill="none" stroke="currentColor" stroke-width="1.9" stroke-linecap="round" stroke-linejoin="round" id="arrow-left" viewBox="0 0 24 24">
    <path d="M19 12H5"/><path d="m12 5-7 7 7 7"/>
  </symbol>

  <symbol fill="none" stroke="currentColor" stroke-width="1.9" stroke-linecap="round" stroke-linejoin="round" id="eye" viewBox="0 0 24 24">
    <path d="M2.5 12s3.5-6 9.5-6 9.5 6 9.5 6-3.5 6-9.5 6-9.5-6-9.5-6Z"/>
    <circle cx="12" cy="12" r="3"/>
  </symbol>
  <symbol fill="none" stroke="currentColor" stroke-width="1.9" stroke-linecap="round" stroke-linejoin="round" id="eye-off" viewBox="0 0 24 24">
    <path d="M3 3l18 18"/>
    <path d="M10.6 10.6A3 3 0 0 0 13.4 13.4"/>
    <path d="M9.1 5.4A10.5 10.5 0 0 1 12 5c6 0 9.5 7 9.5 7a16.4 16.4 0 0 1-2.2 3.1"/>
    <path d="M6.2 6.8C3.8 8.5 2.5 12 2.5 12s3.5 7 9.5 7c1.4 0 2.7-.4 3.8-1"/>
  </symbol>
</svg>
